<?xml version="1.0" encoding="UTF-8"?>
<!-- Created with Inkscape (http://www.inkscape.org/) -->
<svg width="100mm" height="100mm" version="1.1" viewBox="0 0 100 100" xmlns="http://www.w3.org/2000/svg">
 <defs>
  <linearGradient id="linearGradient3590" x1="8.2576" x2="177.54" y1="121.11" y2="121.11" gradientTransform="matrix(.59073 0 0 .72952 -4.878 -38.353)" gradientUnits="userSpaceOnUse">
   <stop stop-color="#430097" offset="0"/>
   <stop stop-color="#670097" offset="1"/>
  </linearGradient>
 </defs>
 <rect width="100" height="100" fill="url(#linearGradient3590)" stroke-width="2.6259"/>
 <g transform="matrix(.38392 0 0 .55318 4.0733 3.4582)" fill="#fff" stroke-width="15.118" style="shape-inside:url(#rect602);white-space:pre" aria-label="2">
  <path d="m137.35 119.07h-44.023v-8c0-2.0724 0.41143-4.2819 1.2343-6.6286 0.85333-2.3772 2.4686-5.0286 4.8457-7.9543 2.3771-2.9562 4.8914-5.7905 7.5429-8.5029l4.9828-5.0743c1.0057-1.0057 3.1848-3.3829 6.5372-7.1314 3.3828-3.779 5.6076-6.659 6.6743-8.64 1.0972-2.0114 1.6457-3.9771 1.6457-5.8971 0-3.139-1.2495-7.2799-3.7486-8.9866s-5.3181-2.56-8.4572-2.56c-1.7676 0-3.7638 0.21333-5.9886 0.64-2.1943 0.39619-4.1143 0.86857-5.76 1.4171s-4.3276 1.661-8.0457 3.3371v-6.0077c3.9314-1.859 7.8629-3.139 11.794-3.84 3.9619-0.73143 7.2229-1.0971 9.7829-1.0971 3.779 0 7.2533 0.62476 10.423 1.8743 3.2 1.219 5.5619 3.139 7.0857 5.76 1.5543 2.5905 2.3314 5.3486 2.3314 8.2743 0 3.2914-0.99048 6.659-2.9714 10.103-1.981 3.4133-5.7295 7.8324-11.246 13.257l-5.3486 5.3029-4.48 4.3886c-2.8343 2.8648-5.1352 5.6533-6.9029 8.3657-1.7372 2.6819-2.6972 9.318-2.88 13.036h34.971z"/>
 </g>
 <g transform="matrix(.3155 0 0 .3155 -2.1428 -21.713)" fill="#fff" stroke-width="15.118" style="shape-inside:url(#rect486);white-space:pre" aria-label="ST/C">
  <path d="m16.43 236.93 13.5-1.3125q1.2188 6.7969 4.9219 9.9844 3.75 3.1875 10.078 3.1875 6.7031 0 10.078-2.8125 3.4219-2.8594 3.4219-6.6562 0-2.4375-1.4531-4.125-1.4062-1.7344-4.9688-3-2.4375-0.84375-11.109-3-11.156-2.7656-15.656-6.7969-6.3281-5.6719-6.3281-13.828 0-5.25 2.9531-9.7969 3-4.5938 8.5781-6.9844 5.625-2.3906 13.547-2.3906 12.938 0 19.453 5.6719 6.5625 5.6719 6.8906 15.141l-13.875 0.60937q-0.89062-5.2969-3.8438-7.5938-2.9062-2.3438-8.7656-2.3438-6.0469 0-9.4688 2.4844-2.2031 1.5938-2.2031 4.2656 0 2.4375 2.0625 4.1719 2.625 2.2031 12.75 4.5938 10.125 2.3906 14.953 4.9688 4.875 2.5312 7.5938 6.9844 2.7656 4.4062 2.7656 10.922 0 5.9062-3.2812 11.062t-9.2812 7.6875q-6 2.4844-14.953 2.4844-13.031 0-20.016-6-6.9844-6.0469-8.3438-17.578z"/>
  <path d="m99.445 259.29v-57.094h-20.391v-11.625h54.609v11.625h-20.344v57.094z"/>
  <path d="m233.26 234.03 13.453 4.2656c-2.0625 7.5-5.5 13.078-10.312 16.734-4.7813 3.625-10.859 5.4375-18.234 5.4375-9.125 0-16.625-3.1094-22.5-9.3281-5.875-6.25-8.8125-14.781-8.8125-25.594 0-11.438 2.9531-20.312 8.8594-26.625 5.9062-6.3438 13.672-9.5156 23.297-9.5156 8.4062 0 15.234 2.4844 20.484 7.4531 3.125 2.9375 5.4688 7.1562 7.0312 12.656l-13.734 3.2812c-0.8125-3.5625-2.5156-6.375-5.1094-8.4375-2.5625-2.0625-5.6875-3.0938-9.375-3.0938-5.0938 0-9.2344 1.8281-12.422 5.4844-3.1562 3.6562-4.7344 9.5781-4.7344 17.766 0 8.6875 1.5625 14.875 4.6875 18.562s7.1875 5.5312 12.188 5.5312c3.6875 0 6.8594-1.1719 9.5156-3.5156s4.5625-6.0312 5.7188-11.062z"/>
  <path d="m300.46 233.91 13.453 4.2656c-2.0625 7.5-5.5 13.078-10.312 16.734-4.7813 3.625-10.859 5.4375-18.234 5.4375-9.125 0-16.625-3.1094-22.5-9.3281-5.875-6.25-8.8125-14.781-8.8125-25.594 0-11.438 2.9531-20.312 8.8594-26.625 5.9062-6.3438 13.672-9.5156 23.297-9.5156 8.4062 0 15.234 2.4844 20.484 7.4531 3.125 2.9375 5.4688 7.1562 7.0312 12.656l-13.734 3.2812c-0.8125-3.5625-2.5156-6.375-5.1094-8.4375-2.5625-2.0625-5.6875-3.0938-9.375-3.0938-5.0938 0-9.2344 1.8281-12.422 5.4844-3.1562 3.6562-4.7344 9.5781-4.7344 17.766 0 8.6875 1.5625 14.875 4.6875 18.562s7.1875 5.5312 12.188 5.5312c3.6875 0 6.8594-1.1719 9.5156-3.5156s4.5625-6.0312 5.7188-11.062z"/>
 </g>
</svg>
