<?xml version="1.0" encoding="UTF-8" standalone="no"?>
<!-- Created with Inkscape (http://www.inkscape.org/) -->

<svg
   width="100mm"
   height="100mm"
   version="1.1"
   viewBox="0 0 100 100"
   id="svg153"
   sodipodi:docname="logo.svg"
   inkscape:version="1.2.1 (9c6d41e, 2022-07-14)"
   xmlns:inkscape="http://www.inkscape.org/namespaces/inkscape"
   xmlns:sodipodi="http://sodipodi.sourceforge.net/DTD/sodipodi-0.dtd"
   xmlns="http://www.w3.org/2000/svg"
   xmlns:svg="http://www.w3.org/2000/svg">
  <sodipodi:namedview
     id="namedview155"
     pagecolor="#ffffff"
     bordercolor="#000000"
     borderopacity="0.25"
     inkscape:showpageshadow="2"
     inkscape:pageopacity="0.0"
     inkscape:pagecheckerboard="0"
     inkscape:deskcolor="#d1d1d1"
     inkscape:document-units="mm"
     showgrid="false"
     inkscape:zoom="1.1032151"
     inkscape:cx="55.292934"
     inkscape:cy="282.35654"
     inkscape:window-width="1390"
     inkscape:window-height="1205"
     inkscape:window-x="0"
     inkscape:window-y="25"
     inkscape:window-maximized="0"
     inkscape:current-layer="svg153" />
  <defs
     id="defs137">
    <rect
       x="86.334511"
       y="32.601843"
       width="186.55499"
       height="114.10645"
       id="rect602" />
    <rect
       x="43.746595"
       y="262.47957"
       width="264.30234"
       height="183.18887"
       id="rect420" />
    <rect
       x="12.96141"
       y="172.8188"
       width="259.2282"
       height="141.13536"
       id="rect486" />
    <linearGradient
       id="linearGradient3590"
       x1="8.2576"
       x2="177.54"
       y1="121.11"
       y2="121.11"
       gradientTransform="matrix(.59073 0 0 .72952 -4.878 -38.353)"
       gradientUnits="userSpaceOnUse">
      <stop
         stop-color="#430097"
         offset="0"
         id="stop132" />
      <stop
         stop-color="#670097"
         offset="1"
         id="stop134" />
    </linearGradient>
  </defs>
  <rect
     width="100"
     height="100"
     fill="url(#linearGradient3590)"
     stroke-width="2.6259"
     id="rect139" />
  <g
     aria-label="2"
     transform="scale(0.26458333)"
     id="text418"
     style="font-weight:bold;font-size:96px;font-family:Arial;-inkscape-font-specification:'Arial Bold';white-space:pre;shape-inside:url(#rect420);fill:#ffffff;stroke-width:15.1181" />
  <g
     aria-label="2"
     transform="matrix(0.45061447,0,0,0.84079609,7.0346345,-16.858935)"
     id="text600"
     style="font-weight:bold;font-size:96px;font-family:Arial;-inkscape-font-specification:'Arial Bold';white-space:pre;shape-inside:url(#rect602);fill:#ffffff;stroke-width:15.1181">
    <path
       d="M 137.35113,119.07399 H 93.32827 v -8 c 0,-2.07238 0.411429,-4.2819 1.234286,-6.62857 0.853333,-2.37715 2.468571,-5.028577 4.845714,-7.95429 2.37714,-2.956191 4.89143,-5.790476 7.54286,-8.502857 l 4.98285,-5.074286 c 1.00572,-1.005714 3.18477,-3.382857 6.53715,-7.131429 3.38285,-3.779047 5.60761,-6.659047 6.67428,-8.64 1.09715,-2.011428 1.64572,-3.977142 1.64572,-5.897142 0,-3.139048 -1.24952,-7.279943 -3.74857,-8.98661 -2.49905,-1.706667 -5.3181,-2.56 -8.45715,-2.56 -1.76762,0 -3.76381,0.213333 -5.98857,0.64 -2.19429,0.396191 -4.11429,0.868572 -5.76,1.417143 -1.64571,0.548571 -4.327618,1.660952 -8.045713,3.337143 v -6.007676 c 3.931429,-1.859048 7.862853,-3.139048 11.794283,-3.84 3.96191,-0.731429 7.22286,-1.097143 9.78286,-1.097143 3.77905,0 7.25333,0.624762 10.42286,1.874285 3.2,1.219048 5.5619,3.139048 7.08571,5.76 1.55429,2.590477 2.33143,5.348572 2.33143,8.274286 0,3.291429 -0.99048,6.659048 -2.97143,10.102857 -1.98095,3.413333 -5.72952,7.832381 -11.24571,13.257143 l -5.34857,5.302857 -4.48,4.388572 c -2.83429,2.864762 -5.13524,5.653334 -6.90286,8.365717 -1.73715,2.6819 -2.69715,9.31798 -2.88,13.03608 h 34.97143 z"
       style="font-family:Ayuthaya;-inkscape-font-specification:'Ayuthaya Bold'"
       id="path656"
       sodipodi:nodetypes="ccsccccccssscscccsccscccccccc" />
  </g>
  <g
     aria-label="ST/C"
     transform="matrix(0.37031227,0,0,0.37031227,1.7191343,-30.237034)"
     id="text484"
     style="font-size:96px;font-family:Arial;-inkscape-font-specification:Arial;white-space:pre;shape-inside:url(#rect486);fill:#ffffff;stroke-width:15.1181">
    <path
       d="m 16.429687,236.93141 13.5,-1.3125 q 1.21875,6.79687 4.921875,9.98437 3.75,3.1875 10.078125,3.1875 6.703125,0 10.078125,-2.8125 3.421875,-2.85937 3.421875,-6.65625 0,-2.4375 -1.453125,-4.125 -1.40625,-1.73437 -4.96875,-3 -2.4375,-0.84375 -11.109375,-3 -11.15625,-2.76562 -15.65625,-6.79687 -6.328125,-5.67188 -6.328125,-13.82813 0,-5.25 2.953125,-9.79687 3,-4.59375 8.578125,-6.98438 5.625,-2.39062 13.546875,-2.39062 12.9375,0 19.453125,5.67187 6.5625,5.67188 6.890625,15.14063 l -13.875,0.60937 q -0.890625,-5.29687 -3.84375,-7.59375 -2.90625,-2.34375 -8.765625,-2.34375 -6.046875,0 -9.46875,2.48438 -2.203125,1.59375 -2.203125,4.26562 0,2.4375 2.0625,4.17188 2.625,2.20312 12.75,4.59375 10.125,2.39062 14.953125,4.96875 4.875,2.53125 7.59375,6.98437 2.765625,4.40625 2.765625,10.92188 0,5.90625 -3.28125,11.0625 -3.28125,5.15625 -9.28125,7.6875 -6,2.48437 -14.953125,2.48437 -13.03125,0 -20.015625,-6 -6.984375,-6.04687 -8.34375,-17.57812 z"
       style="font-weight:bold;-inkscape-font-specification:'Arial Bold'"
       id="path617" />
    <path
       d="M 99.445312,259.29078 V 202.19703 H 79.054687 v -11.625 h 54.609373 v 11.625 h -20.34375 v 57.09375 z"
       style="font-weight:bold;-inkscape-font-specification:'Arial Bold'"
       id="path619" />
    <path
       d="m 233.26345,234.02516 13.45313,4.26562 c -2.0625,7.5 -5.5,13.07813 -10.3125,16.73438 -4.78126,3.625 -10.85938,5.4375 -18.23438,5.4375 -9.125,0 -16.625,-3.10938 -22.5,-9.32813 -5.875,-6.25 -8.8125,-14.78125 -8.8125,-25.59375 0,-11.4375 2.95312,-20.3125 8.85938,-26.625 5.90624,-6.34375 13.67187,-9.51562 23.29687,-9.51562 8.40625,0 15.23438,2.48437 20.48438,7.45312 3.125,2.9375 5.46875,7.15625 7.03125,12.65625 l -13.73438,3.28125 c -0.8125,-3.5625 -2.51563,-6.375 -5.10937,-8.4375 -2.5625,-2.0625 -5.6875,-3.09375 -9.375,-3.09375 -5.09376,0 -9.23438,1.82813 -12.42188,5.48438 -3.15625,3.65625 -4.73437,9.57812 -4.73437,17.76562 0,8.6875 1.5625,14.875 4.6875,18.5625 3.125,3.6875 7.1875,5.53125 12.1875,5.53125 3.6875,0 6.85937,-1.17187 9.51562,-3.51562 2.65625,-2.34375 4.5625,-6.03125 5.71875,-11.0625 z"
       style="font-weight:bold;-inkscape-font-specification:'Arial Bold'"
       id="path623"
       sodipodi:nodetypes="cccscscsccccscssssc" />
  </g>
</svg>
